<svg width="753" height="234" viewBox="0 0 753 234" fill="none" xmlns="http://www.w3.org/2000/svg">
<g clip-path="url(#clip0_447_2843)">
<path d="M736.27 110.371H732.064V122.95H729.605V110.371H725.364V108.026H736.27V110.371Z" fill="white"/>
<path d="M753.002 122.95H750.543V112.325L745.999 119.823H745.696L741.152 112.308V122.967H738.693V108.044H741.348L745.856 115.506L750.383 108.044H753.002V122.967V122.95Z" fill="white"/>
<path d="M410.692 129.817V163.557H398.933V130.586C398.933 122.97 394.79 118.727 388.37 118.727C381.408 118.727 376.511 123.183 376.511 133.092V163.571H364.752V130.6C364.752 122.984 360.937 118.742 354.516 118.742C348.096 118.742 342.43 123.198 342.43 133.106V163.585H330.699V109.147H342.458V115.681C345.946 110.342 351.27 107.737 358.018 107.737C364.766 107.737 370.318 110.898 373.479 116.336C377.066 110.67 382.832 107.737 390.135 107.737C402.435 107.737 410.707 116.222 410.707 129.832L410.692 129.817Z" fill="white"/>
<path d="M478.94 109.147V163.557H467.181V155.727C463.039 161.492 456.618 164.98 448.133 164.98C433.328 164.98 421.027 152.467 421.027 136.352C421.027 120.236 433.328 107.723 448.133 107.723C456.618 107.723 463.039 111.211 467.181 116.863V109.132H478.94V109.147ZM467.181 136.352C467.181 126.23 459.778 118.941 449.984 118.941C440.189 118.941 432.787 126.23 432.787 136.352C432.787 146.473 440.189 153.762 449.984 153.762C459.778 153.762 467.181 146.473 467.181 136.352Z" fill="white"/>
<path d="M525.408 163.557L503.1 138.416V163.557H491.341V87.3799H503.1V133.191L524.212 109.132H538.576L514.631 135.796L539.445 163.542H525.408V163.557Z" fill="white"/>
<path d="M570.694 154.203C577.229 154.203 582.126 151.271 584.731 147.456L594.412 153.122C589.401 160.524 581.243 164.98 570.58 164.98C552.628 164.98 540.983 152.68 540.983 136.352C540.983 120.023 552.628 107.723 569.712 107.723C586.795 107.723 597.031 120.777 597.031 136.451C597.031 138.088 596.818 139.825 596.59 141.348H553.269C555.12 149.833 561.982 154.189 570.68 154.189L570.694 154.203ZM585.172 131.782C583.535 122.429 576.688 118.4 569.612 118.4C560.8 118.4 554.807 123.625 553.184 131.782H585.187H585.172Z" fill="white"/>
<path d="M642.302 163.557L619.993 138.416V163.557H608.234V87.3799H619.993V133.191L641.106 109.132H655.47L631.525 135.796L656.338 163.542H642.302V163.557Z" fill="white"/>
<path d="M687.587 154.506C694.121 154.506 699.018 151.574 701.624 147.759L711.304 153.424C706.293 160.827 698.136 165.283 687.473 165.283C669.521 165.283 657.876 152.983 657.876 136.654C657.876 120.326 669.521 108.026 686.604 108.026C703.688 108.026 713.924 121.08 713.924 136.754C713.924 138.391 713.71 140.128 713.482 141.651H670.162C672.012 150.136 678.874 154.492 687.572 154.492L687.587 154.506ZM702.065 132.085C700.428 122.732 693.58 118.703 686.505 118.703C677.693 118.703 671.699 123.928 670.076 132.085H702.079H702.065Z" fill="white"/>
<path d="M294.316 178.581C286.491 188.174 274.729 200.54 262.439 201.034C255.11 200.588 252.629 195.042 253.349 188.158C255.046 173.338 262.103 159.506 267.624 144.989C271.801 133.962 276.169 123.827 276.889 111.285C278.362 93.0234 261.415 79.7651 244.116 86.3783C232.274 91.1111 224.08 101.007 216.495 110.361C199.868 131.587 187.226 155.108 170.039 175.474C166.775 179.234 163.35 182.74 159.909 185.306C157.269 187.234 154.325 189.003 151.524 188.732C149.988 188.557 149.38 188.158 149.22 187.983C147.811 185.911 148.035 183.378 148.147 180.382C148.756 173.243 150.884 166.263 153.204 159.204C160.005 139.412 169.015 119.907 177.529 100.545C184.026 85.5815 190.859 70.4428 195.804 54.6507C198.38 46.2208 200.7 37.1217 200.508 27.8153C200.508 8.31028 185.578 -2.60554 166.695 0.533758C131.201 7.08325 95.2584 54.8579 72.6946 92.7525C47.9223 77.0082 16.589 84.5776 1.69042 109.772C-5.62283 122.759 12.6683 133.739 20.8137 121.389C31.4075 104.401 48.5624 103.668 61.6207 112.465C60.7245 114.17 59.8604 115.827 59.0602 117.405C46.6101 142.742 23.9502 192.11 38.0966 219.264C41.9373 226.802 50.4188 232.204 58.9962 233.543C75.5591 236.634 89.2414 223.519 95.4505 210.309C109.677 180.748 109.773 135.858 89.0174 108.019C107.26 76.1318 130.528 46.1412 152.788 29.8391C159.877 25.0426 169.751 19.1305 177.544 22.4451C178.985 23.6721 179.209 25.8393 179.369 28.4368C179.417 40.245 175.32 52.2445 171.527 63.6383C160.998 94.2186 146.355 122.185 135.745 153.451C130.544 169.578 122.607 196.477 143.299 205.225C165.734 213.161 182.553 189.003 194.011 173.848C206.573 156.431 217.439 137.866 230.402 121.197C235.49 115.014 249.077 97.31 257.158 103.605C263.687 109.278 254.118 130.918 251.333 138.599C247.46 148.415 243.124 158.375 239.667 169.227C237.043 177.784 234.642 187.569 236.403 197.162C239.171 213.623 257.318 222.372 272.633 217.113C287.595 212.157 298.813 201.417 308.639 189.72C315.76 179.999 301.966 169.402 294.316 178.565V178.581ZM76.6632 131.571C83.7845 148.575 84.3286 169.514 79.9118 187.457C78.7596 192.015 77.2233 196.413 75.287 200.301C72.6146 205.369 69.9261 209.576 65.4453 211.36C63.653 211.966 61.6847 211.472 59.9244 210.643C58.9162 210.149 58.4361 209.878 57.7 208.588C54.7075 202.612 55.9397 191.999 57.444 184.557C60.7885 168.797 67.6057 150.327 76.6472 131.508C76.6472 131.54 76.6632 131.555 76.6792 131.587L76.6632 131.571Z" fill="white"/>
</g>
<defs>
<clipPath id="clip0_447_2843">
<rect width="753" height="234" fill="white"/>
</clipPath>
</defs>
</svg>
